<svg width="2564" height="760" viewBox="0 0 2564 760" fill="none" xmlns="http://www.w3.org/2000/svg">
<path fill-rule="evenodd" clip-rule="evenodd" d="M827.578 239.359C892.471 239.359 945.301 187.711 947.204 123.279C966.02 119.472 985.436 117.524 1005.25 117.524C1064.16 117.524 1118.26 136.255 1166.03 173.192C1208.61 206.124 1238.27 247.754 1255.64 276.882C1264.58 291.861 1280.32 300.802 1297.75 300.802C1315.18 300.802 1330.91 291.861 1339.85 276.882C1357.24 247.754 1386.89 206.124 1429.47 173.192C1477.23 136.255 1531.33 117.524 1590.26 117.524C1603.2 117.524 1615.97 118.355 1628.51 119.992C1628.68 185.945 1682.2 239.359 1748.19 239.359C1814.29 239.359 1867.87 185.777 1867.87 119.679C1867.87 53.5823 1814.29 0 1748.19 0C1710.17 0 1676.29 17.7285 1654.37 45.3698C1633.48 41.726 1612.06 39.8677 1590.26 39.8677C1513.74 39.8677 1443.66 64.0607 1381.97 111.769C1350.83 135.851 1322.62 165.323 1297.75 199.701C1272.89 165.323 1244.67 135.851 1213.54 111.769C1151.85 64.0607 1081.77 39.8677 1005.25 39.8677C977.447 39.8677 950.251 42.8902 924.009 48.7841C902.22 19.197 867.141 0 827.578 0C761.481 0 707.898 53.5823 707.898 119.679C707.898 185.777 761.481 239.359 827.578 239.359ZM777.82 119.679C777.82 92.1988 800.097 69.9214 827.578 69.9214C855.058 69.9214 877.336 92.1988 877.336 119.679C877.336 147.16 855.058 169.438 827.578 169.438C800.097 169.438 777.82 147.16 777.82 119.679ZM1698.43 119.679C1698.43 92.1988 1720.71 69.9214 1748.19 69.9214C1775.67 69.9214 1797.95 92.1988 1797.95 119.679C1797.95 147.16 1775.67 169.438 1748.19 169.438C1720.71 169.438 1698.43 147.16 1698.43 119.679Z" fill="#0400BD"/>
<path fill-rule="evenodd" clip-rule="evenodd" d="M827.578 239.359C892.471 239.359 945.301 187.711 947.204 123.279C966.02 119.472 985.436 117.524 1005.25 117.524C1064.16 117.524 1118.26 136.255 1166.03 173.192C1208.61 206.124 1238.27 247.754 1255.64 276.882C1264.58 291.861 1280.32 300.802 1297.75 300.802C1315.18 300.802 1330.91 291.861 1339.85 276.882C1357.24 247.754 1386.89 206.124 1429.47 173.192C1477.23 136.255 1531.33 117.524 1590.26 117.524C1603.2 117.524 1615.97 118.355 1628.51 119.992C1628.68 185.945 1682.2 239.359 1748.19 239.359C1814.29 239.359 1867.87 185.777 1867.87 119.679C1867.87 53.5823 1814.29 0 1748.19 0C1710.17 0 1676.29 17.7285 1654.37 45.3698C1633.48 41.726 1612.06 39.8677 1590.26 39.8677C1513.74 39.8677 1443.66 64.0607 1381.97 111.769C1350.83 135.851 1322.62 165.323 1297.75 199.701C1272.89 165.323 1244.67 135.851 1213.54 111.769C1151.85 64.0607 1081.77 39.8677 1005.25 39.8677C977.447 39.8677 950.251 42.8902 924.009 48.7841C902.22 19.197 867.141 0 827.578 0C761.481 0 707.898 53.5823 707.898 119.679C707.898 185.777 761.481 239.359 827.578 239.359ZM777.82 119.679C777.82 92.1988 800.097 69.9214 827.578 69.9214C855.058 69.9214 877.336 92.1988 877.336 119.679C877.336 147.16 855.058 169.438 827.578 169.438C800.097 169.438 777.82 147.16 777.82 119.679ZM1698.43 119.679C1698.43 92.1988 1720.71 69.9214 1748.19 69.9214C1775.67 69.9214 1797.95 92.1988 1797.95 119.679C1797.95 147.16 1775.67 169.438 1748.19 169.438C1720.71 169.438 1698.43 147.16 1698.43 119.679Z" fill="#0400BD"/>
<path d="M151.308 484.019V523.536H84.3427V599.261C84.3427 608.345 86.8085 615.548 91.74 620.869C96.8013 626.06 103.744 628.656 112.569 628.656C124.509 628.656 137.422 625.087 151.308 617.949V659.802C132.879 667.459 115.035 671.288 97.7747 671.288C75.1934 671.288 57.6734 665.448 45.2148 653.768C32.7561 642.088 26.5268 624.957 26.5268 602.376V523.536H0.246826V512.245L77.14 426.203H84.3427V484.019H151.308Z" fill="#0400BD"/>
<path d="M444.296 610.746V647.149C422.234 663.241 394.916 671.288 362.342 671.288C330.027 671.288 304.201 662.657 284.865 645.397C265.528 628.007 255.859 605.036 255.859 576.485C255.859 548.453 264.944 525.418 283.113 507.378C301.281 489.339 324.447 480.32 352.609 480.32C380.9 480.32 404.065 489.858 422.104 508.936C440.273 527.883 448.774 553.32 447.606 585.245H315.622C316.79 601.857 322.695 614.64 333.337 623.594C343.978 632.549 358.254 637.026 376.163 637.026C397.836 637.026 420.547 628.266 444.296 610.746ZM316.79 554.877H396.603C393.488 528.143 380.186 514.776 356.696 514.776C332.947 514.776 319.645 528.143 316.79 554.877Z" fill="#0400BD"/>
<path d="M729.303 617.56V659.024C706.722 667.2 686.023 671.288 667.205 671.288C634.89 671.288 609.065 662.657 589.728 645.397C570.391 628.007 560.722 605.036 560.722 576.485C560.722 548.583 570.456 525.612 589.922 507.573C609.519 489.404 634.436 480.32 664.674 480.32C684.141 480.32 704.776 484.343 726.578 492.389V535.41C710.616 527.234 694.912 523.146 679.469 523.146C662.208 523.146 648.387 527.948 638.005 537.552C627.623 547.155 622.432 560.003 622.432 576.096C622.432 592.318 627.493 605.425 637.616 615.418C647.738 625.281 661.04 630.213 677.522 630.213C689.721 630.213 706.982 625.995 729.303 617.56Z" fill="#0400BD"/>
<path d="M910.359 395.835V511.077H911.137C927.23 490.572 946.632 480.32 969.343 480.32C988.939 480.32 1005.03 486.549 1017.62 499.008C1030.34 511.337 1036.7 528.532 1036.7 550.594V667.784H978.881V562.858C978.881 536.124 968.953 522.757 949.097 522.757C935.99 522.757 923.077 532.036 910.359 550.594V667.784H852.543V395.835H910.359Z" fill="#0400BD"/>
<path d="M1224.57 484.019V499.981C1240.01 486.874 1257.53 480.32 1277.13 480.32C1301 480.32 1321.19 489.339 1337.67 507.378C1354.15 525.418 1362.39 547.545 1362.39 573.76C1362.39 603.219 1354.08 626.839 1337.47 644.618C1320.99 662.398 1299.12 671.288 1271.87 671.288C1255 671.288 1239.23 667.07 1224.57 658.634V759.471H1166.75V484.019H1224.57ZM1224.57 536.189V620.674C1235.47 628.72 1246.63 632.744 1258.05 632.744C1272.06 632.744 1283.16 627.747 1291.34 617.754C1299.64 607.632 1303.8 594.005 1303.8 576.874C1303.8 559.354 1299.97 545.728 1292.31 535.994C1284.78 526.261 1274.14 521.394 1260.38 521.394C1248.83 521.394 1236.89 526.326 1224.57 536.189Z" fill="#0400BD"/>
<path d="M1542.67 395.835V511.077H1543.44C1559.54 490.572 1578.94 480.32 1601.65 480.32C1621.25 480.32 1637.34 486.549 1649.93 499.008C1662.65 511.337 1669 528.532 1669 550.594V667.784H1611.19V562.858C1611.19 536.124 1601.26 522.757 1581.4 522.757C1568.3 522.757 1555.38 532.036 1542.67 550.594V667.784H1484.85V395.835H1542.67Z" fill="#0400BD"/>
<path d="M1798.28 424.256C1798.28 415.431 1801.39 407.904 1807.62 401.675C1813.85 395.445 1821.31 392.331 1830.01 392.331C1838.83 392.331 1846.36 395.445 1852.59 401.675C1858.82 407.904 1861.93 415.431 1861.93 424.256C1861.93 432.951 1858.82 440.478 1852.59 446.837C1846.36 453.067 1838.83 456.181 1830.01 456.181C1821.31 456.181 1813.85 453.067 1807.62 446.837C1801.39 440.478 1798.28 432.951 1798.28 424.256ZM1859.21 484.019V667.784H1801.39V484.019H1859.21Z" fill="#0400BD"/>
<path d="M2051.17 395.835V667.784H1993.35V395.835H2051.17Z" fill="#0400BD"/>
<path d="M2182.19 424.256C2182.19 415.431 2185.31 407.904 2191.54 401.675C2197.77 395.445 2205.23 392.331 2213.92 392.331C2222.75 392.331 2230.27 395.445 2236.5 401.675C2242.73 407.904 2245.85 415.431 2245.85 424.256C2245.85 432.951 2242.73 440.478 2236.5 446.837C2230.27 453.067 2222.75 456.181 2213.92 456.181C2205.23 456.181 2197.77 453.067 2191.54 446.837C2185.31 440.478 2182.19 432.951 2182.19 424.256ZM2243.12 484.019V667.784H2185.31V484.019H2243.12Z" fill="#0400BD"/>
<path d="M2563.75 622.426V654.546C2544.55 665.707 2526.51 671.288 2509.64 671.288C2491.47 671.288 2480.7 664.409 2477.32 650.653C2457.21 664.409 2437.03 671.288 2416.78 671.288C2402.5 671.288 2390.37 666.81 2380.38 657.856C2370.38 648.771 2365.39 638.259 2365.39 626.32C2365.39 610.357 2370.51 597.509 2380.77 587.776C2391.15 577.913 2422.43 565.259 2474.6 549.816C2475.89 529.311 2465.25 519.058 2442.67 519.058C2418.14 519.058 2395.56 529.311 2374.93 549.816V502.706C2399.07 487.782 2425.61 480.32 2454.55 480.32C2506.46 480.32 2532.41 498.943 2532.41 536.189V619.896C2532.41 628.461 2535.59 632.744 2541.95 632.744C2546.75 632.744 2554.02 629.304 2563.75 622.426ZM2474.6 623.205V578.821C2455.26 585.569 2441.96 591.669 2434.69 597.12C2427.55 602.441 2423.98 609.254 2423.98 617.56C2423.98 622.881 2425.8 627.488 2429.43 631.381C2433.07 635.144 2437.48 637.026 2442.67 637.026C2453.57 637.026 2464.21 632.419 2474.6 623.205Z" fill="#0400BD"/>
</svg>
